# xmcd
#
# Track frame offsets:
#	150
#	16715
#	26525
#	43045
#	59600
#	74340
#	81800
#	117537
#	139972
#	145097
#	161295
#	191825
#	206080
#	211802
#	231437
#	244127
#	265227
#	291750
#	315420
#	335937
#
# Disc length: 4681 seconds
#
# Revision: 0
# Processed by: cddbd v1.4PL0 Copyright (c) Steve Scherf et al.
# Submitted via: dBpowerAMP V4.0
#
DISCID=33124714
DTITLE=The Mighty Wah! - A Word To The Wise Guy
DYEAR=2001
DGENRE=New Wave
TTITLE0=The Story Of The Blues Pt.1
TTITLE1=Yuh Learn
TTITLE2=Weekends
TTITLE3=Everwanna
TTITLE4=The Lost Generation
TTITLE5=Yuh Learn 2
TTITLE6=I Know There Was Something
TTITLE7=Hope (Faded)
TTITLE8=Yuh Learn 3
TTITLE9=In The Bleak - Body And Soul - Midwinter
TTITLE10=Papa Crack - God's Lonely Man
TTITLE11=What's Happening Here
TTITLE12=Yuh Learn 4
TTITLE13=Come Back (Story Of The Reds)
TTITLE14=Talkin' Blues (The Story Of The Blues Pt.2)
TTITLE15=Don't Step On The Cracks
TTITLE16=Yuh Learn (Version)
TTITLE17=Come Back (The Holiday Romance Version)
TTITLE18=The Devil In Miss Jones
TTITLE19=Remember
EXTD=
EXTT0=
EXTT1=
EXTT2=
EXTT3=
EXTT4=
EXTT5=
EXTT6=
EXTT7=
EXTT8=
EXTT9=
EXTT10=
EXTT11=
EXTT12=
EXTT13=
EXTT14=
EXTT15=
EXTT16=
EXTT17=
EXTT18=
EXTT19=
PLAYORDER=
